<svg width="25" height="25" viewBox="0 0 25 25" fill="none" xmlns="http://www.w3.org/2000/svg">
<path d="M5.98804 2.40161H19.988C20.6724 2.40161 21.3323 2.63968 21.8572 3.06958L22.074 3.26587C22.6272 3.8191 22.9382 4.56942 22.9382 5.35181V7.35181C22.9382 8.21903 22.5643 8.99943 21.9675 9.53931L21.9509 9.55493V20.3167C21.9509 20.8338 21.7453 21.3299 21.3796 21.6956C21.014 22.0612 20.5179 22.2668 20.0007 22.2668H12.3611V22.2659L12.3513 22.2678C12.2316 22.2904 12.1099 22.302 11.988 22.302H9.98804L9.80542 22.2932C9.74487 22.2875 9.68458 22.2791 9.62476 22.2678L9.61499 22.3167L9.62476 22.2668H5.99878C5.4817 22.2668 4.98551 22.0612 4.61987 21.6956C4.25431 21.3299 4.04858 20.8337 4.04858 20.3167V9.47583L3.99585 9.52759C3.69981 9.25696 3.46127 8.92886 3.29663 8.56274C3.1255 8.18206 3.03726 7.76919 3.03784 7.35181V5.35181C3.03784 4.6674 3.27591 4.00754 3.70581 3.48267L3.9021 3.26587C4.45533 2.71264 5.20565 2.40161 5.98804 2.40161ZM15.9548 9.55103C15.4146 10.0356 14.7138 10.303 13.988 10.302H11.988C11.2329 10.302 10.5424 10.018 10.0212 9.55103L9.98804 9.52075L9.95483 9.55103C9.41458 10.0356 8.71377 10.303 7.98804 10.302H5.948V20.3665H8.03784V15.3518C8.03784 14.8346 8.24344 14.3386 8.60913 13.9729C8.97483 13.6072 9.47087 13.4016 9.98804 13.4016H11.988C12.5052 13.4016 13.0012 13.6072 13.3669 13.9729C13.7326 14.3386 13.9382 14.8346 13.9382 15.3518V20.3665H20.0515V10.302H17.988C17.2329 10.302 16.5424 10.018 16.0212 9.55103L15.988 9.52075L15.9548 9.55103ZM9.93823 20.3665H11.988V20.3176H12.0378V15.302H9.93823V20.3665ZM16.988 13.4016H17.988C18.24 13.4016 18.4818 13.5018 18.6599 13.6799C18.8381 13.8581 18.9382 14.0999 18.9382 14.3518V17.3518C18.9382 17.6038 18.8381 17.8455 18.6599 18.0237C18.4818 18.2018 18.24 18.302 17.988 18.302H16.988C16.7361 18.302 16.4943 18.2018 16.3162 18.0237C16.138 17.8455 16.0378 17.6038 16.0378 17.3518V14.3518C16.0378 14.0999 16.138 13.8581 16.3162 13.6799C16.4943 13.5018 16.7361 13.4016 16.988 13.4016ZM5.98804 4.302C5.70956 4.302 5.44276 4.41271 5.24585 4.60962C5.04894 4.80653 4.93823 5.07333 4.93823 5.35181V7.35181C4.93823 7.63028 5.04894 7.89708 5.24585 8.09399C5.44276 8.29091 5.70956 8.40161 5.98804 8.40161H7.98804C8.26651 8.40161 8.53331 8.29091 8.73022 8.09399C8.92714 7.89708 9.03784 7.63028 9.03784 7.35181V4.302H5.98804ZM10.9382 7.35181C10.9382 7.63028 11.0489 7.89708 11.2458 8.09399C11.4428 8.29091 11.7096 8.40161 11.988 8.40161H13.988C14.2665 8.40161 14.5333 8.29091 14.7302 8.09399C14.9271 7.89708 15.0378 7.63028 15.0378 7.35181V4.302H10.9382V7.35181ZM16.9382 7.35181C16.9382 7.63028 17.0489 7.89708 17.2458 8.09399C17.4428 8.29091 17.7096 8.40161 17.988 8.40161H19.988C20.2665 8.40161 20.5333 8.29091 20.7302 8.09399C20.9271 7.89708 21.0378 7.63028 21.0378 7.35181V5.35181C21.0378 5.07333 20.9271 4.80653 20.7302 4.60962C20.5333 4.41271 20.2665 4.302 19.988 4.302H16.9382V7.35181Z" fill="#181725" stroke="white" stroke-width="0.1"/>
</svg>
